%TF.GenerationSoftware,KiCad,Pcbnew,7.0.10*%
%TF.CreationDate,2024-05-03T14:58:40-07:00*%
%TF.ProjectId,ECE_196_proj_shem,4543455f-3139-4365-9f70-726f6a5f7368,rev?*%
%TF.SameCoordinates,Original*%
%TF.FileFunction,Legend,Top*%
%TF.FilePolarity,Positive*%
%FSLAX46Y46*%
G04 Gerber Fmt 4.6, Leading zero omitted, Abs format (unit mm)*
G04 Created by KiCad (PCBNEW 7.0.10) date 2024-05-03 14:58:40*
%MOMM*%
%LPD*%
G01*
G04 APERTURE LIST*
%ADD10C,0.150000*%
%ADD11C,0.120000*%
%ADD12C,0.127000*%
%ADD13C,0.300000*%
G04 APERTURE END LIST*
D10*
X152487333Y-84114819D02*
X152154000Y-83638628D01*
X151915905Y-84114819D02*
X151915905Y-83114819D01*
X151915905Y-83114819D02*
X152296857Y-83114819D01*
X152296857Y-83114819D02*
X152392095Y-83162438D01*
X152392095Y-83162438D02*
X152439714Y-83210057D01*
X152439714Y-83210057D02*
X152487333Y-83305295D01*
X152487333Y-83305295D02*
X152487333Y-83448152D01*
X152487333Y-83448152D02*
X152439714Y-83543390D01*
X152439714Y-83543390D02*
X152392095Y-83591009D01*
X152392095Y-83591009D02*
X152296857Y-83638628D01*
X152296857Y-83638628D02*
X151915905Y-83638628D01*
X153344476Y-83448152D02*
X153344476Y-84114819D01*
X153106381Y-83067200D02*
X152868286Y-83781485D01*
X152868286Y-83781485D02*
X153487333Y-83781485D01*
X152108095Y-87882319D02*
X152108095Y-88691842D01*
X152108095Y-88691842D02*
X152155714Y-88787080D01*
X152155714Y-88787080D02*
X152203333Y-88834700D01*
X152203333Y-88834700D02*
X152298571Y-88882319D01*
X152298571Y-88882319D02*
X152489047Y-88882319D01*
X152489047Y-88882319D02*
X152584285Y-88834700D01*
X152584285Y-88834700D02*
X152631904Y-88787080D01*
X152631904Y-88787080D02*
X152679523Y-88691842D01*
X152679523Y-88691842D02*
X152679523Y-87882319D01*
X153679523Y-88882319D02*
X153108095Y-88882319D01*
X153393809Y-88882319D02*
X153393809Y-87882319D01*
X153393809Y-87882319D02*
X153298571Y-88025176D01*
X153298571Y-88025176D02*
X153203333Y-88120414D01*
X153203333Y-88120414D02*
X153108095Y-88168033D01*
X160634819Y-88050666D02*
X160158628Y-88383999D01*
X160634819Y-88622094D02*
X159634819Y-88622094D01*
X159634819Y-88622094D02*
X159634819Y-88241142D01*
X159634819Y-88241142D02*
X159682438Y-88145904D01*
X159682438Y-88145904D02*
X159730057Y-88098285D01*
X159730057Y-88098285D02*
X159825295Y-88050666D01*
X159825295Y-88050666D02*
X159968152Y-88050666D01*
X159968152Y-88050666D02*
X160063390Y-88098285D01*
X160063390Y-88098285D02*
X160111009Y-88145904D01*
X160111009Y-88145904D02*
X160158628Y-88241142D01*
X160158628Y-88241142D02*
X160158628Y-88622094D01*
X160634819Y-87098285D02*
X160634819Y-87669713D01*
X160634819Y-87383999D02*
X159634819Y-87383999D01*
X159634819Y-87383999D02*
X159777676Y-87479237D01*
X159777676Y-87479237D02*
X159872914Y-87574475D01*
X159872914Y-87574475D02*
X159920533Y-87669713D01*
X147915333Y-97861580D02*
X147867714Y-97909200D01*
X147867714Y-97909200D02*
X147724857Y-97956819D01*
X147724857Y-97956819D02*
X147629619Y-97956819D01*
X147629619Y-97956819D02*
X147486762Y-97909200D01*
X147486762Y-97909200D02*
X147391524Y-97813961D01*
X147391524Y-97813961D02*
X147343905Y-97718723D01*
X147343905Y-97718723D02*
X147296286Y-97528247D01*
X147296286Y-97528247D02*
X147296286Y-97385390D01*
X147296286Y-97385390D02*
X147343905Y-97194914D01*
X147343905Y-97194914D02*
X147391524Y-97099676D01*
X147391524Y-97099676D02*
X147486762Y-97004438D01*
X147486762Y-97004438D02*
X147629619Y-96956819D01*
X147629619Y-96956819D02*
X147724857Y-96956819D01*
X147724857Y-96956819D02*
X147867714Y-97004438D01*
X147867714Y-97004438D02*
X147915333Y-97052057D01*
X148296286Y-97052057D02*
X148343905Y-97004438D01*
X148343905Y-97004438D02*
X148439143Y-96956819D01*
X148439143Y-96956819D02*
X148677238Y-96956819D01*
X148677238Y-96956819D02*
X148772476Y-97004438D01*
X148772476Y-97004438D02*
X148820095Y-97052057D01*
X148820095Y-97052057D02*
X148867714Y-97147295D01*
X148867714Y-97147295D02*
X148867714Y-97242533D01*
X148867714Y-97242533D02*
X148820095Y-97385390D01*
X148820095Y-97385390D02*
X148248667Y-97956819D01*
X148248667Y-97956819D02*
X148867714Y-97956819D01*
X159837580Y-93892666D02*
X159885200Y-93940285D01*
X159885200Y-93940285D02*
X159932819Y-94083142D01*
X159932819Y-94083142D02*
X159932819Y-94178380D01*
X159932819Y-94178380D02*
X159885200Y-94321237D01*
X159885200Y-94321237D02*
X159789961Y-94416475D01*
X159789961Y-94416475D02*
X159694723Y-94464094D01*
X159694723Y-94464094D02*
X159504247Y-94511713D01*
X159504247Y-94511713D02*
X159361390Y-94511713D01*
X159361390Y-94511713D02*
X159170914Y-94464094D01*
X159170914Y-94464094D02*
X159075676Y-94416475D01*
X159075676Y-94416475D02*
X158980438Y-94321237D01*
X158980438Y-94321237D02*
X158932819Y-94178380D01*
X158932819Y-94178380D02*
X158932819Y-94083142D01*
X158932819Y-94083142D02*
X158980438Y-93940285D01*
X158980438Y-93940285D02*
X159028057Y-93892666D01*
X158932819Y-92987904D02*
X158932819Y-93464094D01*
X158932819Y-93464094D02*
X159409009Y-93511713D01*
X159409009Y-93511713D02*
X159361390Y-93464094D01*
X159361390Y-93464094D02*
X159313771Y-93368856D01*
X159313771Y-93368856D02*
X159313771Y-93130761D01*
X159313771Y-93130761D02*
X159361390Y-93035523D01*
X159361390Y-93035523D02*
X159409009Y-92987904D01*
X159409009Y-92987904D02*
X159504247Y-92940285D01*
X159504247Y-92940285D02*
X159742342Y-92940285D01*
X159742342Y-92940285D02*
X159837580Y-92987904D01*
X159837580Y-92987904D02*
X159885200Y-93035523D01*
X159885200Y-93035523D02*
X159932819Y-93130761D01*
X159932819Y-93130761D02*
X159932819Y-93368856D01*
X159932819Y-93368856D02*
X159885200Y-93464094D01*
X159885200Y-93464094D02*
X159837580Y-93511713D01*
X156551333Y-84114819D02*
X156218000Y-83638628D01*
X155979905Y-84114819D02*
X155979905Y-83114819D01*
X155979905Y-83114819D02*
X156360857Y-83114819D01*
X156360857Y-83114819D02*
X156456095Y-83162438D01*
X156456095Y-83162438D02*
X156503714Y-83210057D01*
X156503714Y-83210057D02*
X156551333Y-83305295D01*
X156551333Y-83305295D02*
X156551333Y-83448152D01*
X156551333Y-83448152D02*
X156503714Y-83543390D01*
X156503714Y-83543390D02*
X156456095Y-83591009D01*
X156456095Y-83591009D02*
X156360857Y-83638628D01*
X156360857Y-83638628D02*
X155979905Y-83638628D01*
X156932286Y-83210057D02*
X156979905Y-83162438D01*
X156979905Y-83162438D02*
X157075143Y-83114819D01*
X157075143Y-83114819D02*
X157313238Y-83114819D01*
X157313238Y-83114819D02*
X157408476Y-83162438D01*
X157408476Y-83162438D02*
X157456095Y-83210057D01*
X157456095Y-83210057D02*
X157503714Y-83305295D01*
X157503714Y-83305295D02*
X157503714Y-83400533D01*
X157503714Y-83400533D02*
X157456095Y-83543390D01*
X157456095Y-83543390D02*
X156884667Y-84114819D01*
X156884667Y-84114819D02*
X157503714Y-84114819D01*
X152233333Y-94627580D02*
X152185714Y-94675200D01*
X152185714Y-94675200D02*
X152042857Y-94722819D01*
X152042857Y-94722819D02*
X151947619Y-94722819D01*
X151947619Y-94722819D02*
X151804762Y-94675200D01*
X151804762Y-94675200D02*
X151709524Y-94579961D01*
X151709524Y-94579961D02*
X151661905Y-94484723D01*
X151661905Y-94484723D02*
X151614286Y-94294247D01*
X151614286Y-94294247D02*
X151614286Y-94151390D01*
X151614286Y-94151390D02*
X151661905Y-93960914D01*
X151661905Y-93960914D02*
X151709524Y-93865676D01*
X151709524Y-93865676D02*
X151804762Y-93770438D01*
X151804762Y-93770438D02*
X151947619Y-93722819D01*
X151947619Y-93722819D02*
X152042857Y-93722819D01*
X152042857Y-93722819D02*
X152185714Y-93770438D01*
X152185714Y-93770438D02*
X152233333Y-93818057D01*
X153090476Y-94056152D02*
X153090476Y-94722819D01*
X152852381Y-93675200D02*
X152614286Y-94389485D01*
X152614286Y-94389485D02*
X153233333Y-94389485D01*
X165372012Y-91264982D02*
X165372012Y-90264628D01*
X165372012Y-90264628D02*
X165705463Y-90979167D01*
X165705463Y-90979167D02*
X166038915Y-90264628D01*
X166038915Y-90264628D02*
X166038915Y-91264982D01*
X166515274Y-91264982D02*
X166515274Y-90264628D01*
X167086905Y-91264982D02*
X166658182Y-90693352D01*
X167086905Y-90264628D02*
X166515274Y-90836259D01*
X168039623Y-91264982D02*
X167467992Y-91264982D01*
X167753808Y-91264982D02*
X167753808Y-90264628D01*
X167753808Y-90264628D02*
X167658536Y-90407536D01*
X167658536Y-90407536D02*
X167563264Y-90502808D01*
X167563264Y-90502808D02*
X167467992Y-90550444D01*
X143876666Y-83989819D02*
X143876666Y-84704104D01*
X143876666Y-84704104D02*
X143829047Y-84846961D01*
X143829047Y-84846961D02*
X143733809Y-84942200D01*
X143733809Y-84942200D02*
X143590952Y-84989819D01*
X143590952Y-84989819D02*
X143495714Y-84989819D01*
X144876666Y-84989819D02*
X144305238Y-84989819D01*
X144590952Y-84989819D02*
X144590952Y-83989819D01*
X144590952Y-83989819D02*
X144495714Y-84132676D01*
X144495714Y-84132676D02*
X144400476Y-84227914D01*
X144400476Y-84227914D02*
X144305238Y-84275533D01*
X160345580Y-91606666D02*
X160393200Y-91654285D01*
X160393200Y-91654285D02*
X160440819Y-91797142D01*
X160440819Y-91797142D02*
X160440819Y-91892380D01*
X160440819Y-91892380D02*
X160393200Y-92035237D01*
X160393200Y-92035237D02*
X160297961Y-92130475D01*
X160297961Y-92130475D02*
X160202723Y-92178094D01*
X160202723Y-92178094D02*
X160012247Y-92225713D01*
X160012247Y-92225713D02*
X159869390Y-92225713D01*
X159869390Y-92225713D02*
X159678914Y-92178094D01*
X159678914Y-92178094D02*
X159583676Y-92130475D01*
X159583676Y-92130475D02*
X159488438Y-92035237D01*
X159488438Y-92035237D02*
X159440819Y-91892380D01*
X159440819Y-91892380D02*
X159440819Y-91797142D01*
X159440819Y-91797142D02*
X159488438Y-91654285D01*
X159488438Y-91654285D02*
X159536057Y-91606666D01*
X159440819Y-91273332D02*
X159440819Y-90654285D01*
X159440819Y-90654285D02*
X159821771Y-90987618D01*
X159821771Y-90987618D02*
X159821771Y-90844761D01*
X159821771Y-90844761D02*
X159869390Y-90749523D01*
X159869390Y-90749523D02*
X159917009Y-90701904D01*
X159917009Y-90701904D02*
X160012247Y-90654285D01*
X160012247Y-90654285D02*
X160250342Y-90654285D01*
X160250342Y-90654285D02*
X160345580Y-90701904D01*
X160345580Y-90701904D02*
X160393200Y-90749523D01*
X160393200Y-90749523D02*
X160440819Y-90844761D01*
X160440819Y-90844761D02*
X160440819Y-91130475D01*
X160440819Y-91130475D02*
X160393200Y-91225713D01*
X160393200Y-91225713D02*
X160345580Y-91273332D01*
X147713580Y-87796666D02*
X147761200Y-87844285D01*
X147761200Y-87844285D02*
X147808819Y-87987142D01*
X147808819Y-87987142D02*
X147808819Y-88082380D01*
X147808819Y-88082380D02*
X147761200Y-88225237D01*
X147761200Y-88225237D02*
X147665961Y-88320475D01*
X147665961Y-88320475D02*
X147570723Y-88368094D01*
X147570723Y-88368094D02*
X147380247Y-88415713D01*
X147380247Y-88415713D02*
X147237390Y-88415713D01*
X147237390Y-88415713D02*
X147046914Y-88368094D01*
X147046914Y-88368094D02*
X146951676Y-88320475D01*
X146951676Y-88320475D02*
X146856438Y-88225237D01*
X146856438Y-88225237D02*
X146808819Y-88082380D01*
X146808819Y-88082380D02*
X146808819Y-87987142D01*
X146808819Y-87987142D02*
X146856438Y-87844285D01*
X146856438Y-87844285D02*
X146904057Y-87796666D01*
X147808819Y-86844285D02*
X147808819Y-87415713D01*
X147808819Y-87129999D02*
X146808819Y-87129999D01*
X146808819Y-87129999D02*
X146951676Y-87225237D01*
X146951676Y-87225237D02*
X147046914Y-87320475D01*
X147046914Y-87320475D02*
X147094533Y-87415713D01*
D11*
%TO.C,R4*%
X152416742Y-84567500D02*
X152891258Y-84567500D01*
X152416742Y-85612500D02*
X152891258Y-85612500D01*
D10*
%TO.C,U1*%
X151370000Y-92602500D02*
X154370000Y-92602500D01*
X152870000Y-89352500D02*
X154370000Y-89352500D01*
D11*
%TO.C,R1*%
X159272500Y-87646742D02*
X159272500Y-88121258D01*
X158227500Y-87646742D02*
X158227500Y-88121258D01*
%TO.C,R2*%
X156480742Y-84567500D02*
X156955258Y-84567500D01*
X156480742Y-85612500D02*
X156955258Y-85612500D01*
D12*
%TO.C,MK1*%
X170172000Y-88900000D02*
G75*
G03*
X160472000Y-88900000I-4850000J0D01*
G01*
X160472000Y-88900000D02*
G75*
G03*
X170172000Y-88900000I4850000J0D01*
G01*
D13*
X159979000Y-87159000D02*
G75*
G03*
X159779000Y-87159000I-100000J0D01*
G01*
X159779000Y-87159000D02*
G75*
G03*
X159979000Y-87159000I100000J0D01*
G01*
D11*
%TO.C,J1*%
X143100000Y-85470000D02*
X144210000Y-85470000D01*
X143100000Y-86230000D02*
X143100000Y-85470000D01*
X143100000Y-86990000D02*
X143100000Y-92005000D01*
X143100000Y-86990000D02*
X143646529Y-86990000D01*
X143100000Y-92005000D02*
X143902470Y-92005000D01*
X144517530Y-92005000D02*
X145320000Y-92005000D01*
X144773471Y-86990000D02*
X145320000Y-86990000D01*
X145320000Y-86990000D02*
X145320000Y-92005000D01*
%TD*%
M02*
