%TF.GenerationSoftware,KiCad,Pcbnew,7.0.10*%
%TF.CreationDate,2024-05-03T14:58:40-07:00*%
%TF.ProjectId,ECE_196_proj_shem,4543455f-3139-4365-9f70-726f6a5f7368,rev?*%
%TF.SameCoordinates,Original*%
%TF.FileFunction,Copper,L1,Top*%
%TF.FilePolarity,Positive*%
%FSLAX46Y46*%
G04 Gerber Fmt 4.6, Leading zero omitted, Abs format (unit mm)*
G04 Created by KiCad (PCBNEW 7.0.10) date 2024-05-03 14:58:40*
%MOMM*%
%LPD*%
G01*
G04 APERTURE LIST*
G04 Aperture macros list*
%AMRoundRect*
0 Rectangle with rounded corners*
0 $1 Rounding radius*
0 $2 $3 $4 $5 $6 $7 $8 $9 X,Y pos of 4 corners*
0 Add a 4 corners polygon primitive as box body*
4,1,4,$2,$3,$4,$5,$6,$7,$8,$9,$2,$3,0*
0 Add four circle primitives for the rounded corners*
1,1,$1+$1,$2,$3*
1,1,$1+$1,$4,$5*
1,1,$1+$1,$6,$7*
1,1,$1+$1,$8,$9*
0 Add four rect primitives between the rounded corners*
20,1,$1+$1,$2,$3,$4,$5,0*
20,1,$1+$1,$4,$5,$6,$7,0*
20,1,$1+$1,$6,$7,$8,$9,0*
20,1,$1+$1,$8,$9,$2,$3,0*%
G04 Aperture macros list end*
%TA.AperFunction,SMDPad,CuDef*%
%ADD10RoundRect,0.200000X-0.200000X-0.275000X0.200000X-0.275000X0.200000X0.275000X-0.200000X0.275000X0*%
%TD*%
%TA.AperFunction,SMDPad,CuDef*%
%ADD11R,0.700000X0.250000*%
%TD*%
%TA.AperFunction,SMDPad,CuDef*%
%ADD12R,1.780000X2.350000*%
%TD*%
%TA.AperFunction,SMDPad,CuDef*%
%ADD13RoundRect,0.200000X-0.275000X0.200000X-0.275000X-0.200000X0.275000X-0.200000X0.275000X0.200000X0*%
%TD*%
%TA.AperFunction,SMDPad,CuDef*%
%ADD14RoundRect,0.165000X0.165000X0.475000X-0.165000X0.475000X-0.165000X-0.475000X0.165000X-0.475000X0*%
%TD*%
%TA.AperFunction,SMDPad,CuDef*%
%ADD15RoundRect,0.165000X-0.475000X0.165000X-0.475000X-0.165000X0.475000X-0.165000X0.475000X0.165000X0*%
%TD*%
%TA.AperFunction,SMDPad,CuDef*%
%ADD16RoundRect,0.165000X-0.165000X-0.475000X0.165000X-0.475000X0.165000X0.475000X-0.165000X0.475000X0*%
%TD*%
%TA.AperFunction,ComponentPad*%
%ADD17R,1.378000X1.378000*%
%TD*%
%TA.AperFunction,ComponentPad*%
%ADD18C,1.378000*%
%TD*%
%TA.AperFunction,ComponentPad*%
%ADD19R,1.000000X1.000000*%
%TD*%
%TA.AperFunction,ComponentPad*%
%ADD20O,1.000000X1.000000*%
%TD*%
%TA.AperFunction,SMDPad,CuDef*%
%ADD21RoundRect,0.165000X0.475000X-0.165000X0.475000X0.165000X-0.475000X0.165000X-0.475000X-0.165000X0*%
%TD*%
%TA.AperFunction,ViaPad*%
%ADD22C,0.400000*%
%TD*%
%TA.AperFunction,ViaPad*%
%ADD23C,0.250000*%
%TD*%
%TA.AperFunction,Conductor*%
%ADD24C,0.177800*%
%TD*%
%TA.AperFunction,Conductor*%
%ADD25C,0.127000*%
%TD*%
G04 APERTURE END LIST*
D10*
%TO.P,R4,1*%
%TO.N,Net-(U1-TH)*%
X151829000Y-85090000D03*
%TO.P,R4,2*%
%TO.N,GND*%
X153479000Y-85090000D03*
%TD*%
D11*
%TO.P,U1,1,CT*%
%TO.N,Net-(U1-CT)*%
X151395000Y-89777500D03*
%TO.P,U1,2,~{SHDN}*%
%TO.N,/GAIN*%
X151395000Y-90177500D03*
%TO.P,U1,3,CG*%
%TO.N,Net-(U1-CG)*%
X151395000Y-90577500D03*
%TO.P,U1,4,GND*%
%TO.N,GND*%
X151395000Y-90977500D03*
%TO.P,U1,5,VDD*%
%TO.N,/GAIN*%
X151395000Y-91377500D03*
%TO.P,U1,6,MICOUT*%
%TO.N,/OUTPUT*%
X151395000Y-91777500D03*
%TO.P,U1,7,GND*%
%TO.N,GND*%
X151395000Y-92177500D03*
%TO.P,U1,8,MICIN*%
%TO.N,Net-(U1-MICIN)*%
X154345000Y-92177500D03*
%TO.P,U1,9,A/R*%
%TO.N,GND*%
X154345000Y-91777500D03*
%TO.P,U1,10,GAIN*%
%TO.N,/GAIN*%
X154345000Y-91377500D03*
%TO.P,U1,11,GND*%
%TO.N,GND*%
X154345000Y-90977500D03*
%TO.P,U1,12,BIAS*%
%TO.N,Net-(U1-BIAS)*%
X154345000Y-90577500D03*
%TO.P,U1,13,MICBIAS*%
%TO.N,Net-(U1-MICBIAS)*%
X154345000Y-90177500D03*
%TO.P,U1,14,TH*%
%TO.N,Net-(U1-TH)*%
X154345000Y-89777500D03*
D12*
%TO.P,U1,15,GND*%
%TO.N,GND*%
X152870000Y-90977500D03*
%TD*%
D13*
%TO.P,R1,1*%
%TO.N,Net-(U1-MICBIAS)*%
X158750000Y-87059000D03*
%TO.P,R1,2*%
%TO.N,Net-(C5-Pad2)*%
X158750000Y-88709000D03*
%TD*%
D14*
%TO.P,C2,1*%
%TO.N,Net-(U1-CG)*%
X148622000Y-96012000D03*
%TO.P,C2,2*%
%TO.N,GND*%
X147542000Y-96012000D03*
%TD*%
D15*
%TO.P,C5,1*%
%TO.N,Net-(U1-MICIN)*%
X157988000Y-93186000D03*
%TO.P,C5,2*%
%TO.N,Net-(C5-Pad2)*%
X157988000Y-94266000D03*
%TD*%
D10*
%TO.P,R2,1*%
%TO.N,Net-(U1-TH)*%
X155893000Y-85090000D03*
%TO.P,R2,2*%
%TO.N,Net-(U1-MICBIAS)*%
X157543000Y-85090000D03*
%TD*%
D16*
%TO.P,C4,1*%
%TO.N,/GAIN*%
X151860000Y-95758000D03*
%TO.P,C4,2*%
%TO.N,GND*%
X152940000Y-95758000D03*
%TD*%
D17*
%TO.P,MK1,1*%
%TO.N,GND*%
X163322000Y-87630000D03*
D18*
%TO.P,MK1,2*%
%TO.N,Net-(C5-Pad2)*%
X163322000Y-90170000D03*
%TD*%
D19*
%TO.P,J1,1,Pin_1*%
%TO.N,GND*%
X144210000Y-86230000D03*
D20*
%TO.P,J1,2,Pin_2*%
%TO.N,/GAIN*%
X144210000Y-87500000D03*
%TO.P,J1,3,Pin_3*%
X144210000Y-88770000D03*
%TO.P,J1,4,Pin_4*%
%TO.N,/OUTPUT*%
X144210000Y-90040000D03*
%TO.P,J1,5,Pin_5*%
%TO.N,GND*%
X144210000Y-91310000D03*
%TD*%
D15*
%TO.P,C3,1*%
%TO.N,Net-(U1-BIAS)*%
X158496000Y-90900000D03*
%TO.P,C3,2*%
%TO.N,GND*%
X158496000Y-91980000D03*
%TD*%
D21*
%TO.P,C1,1*%
%TO.N,Net-(U1-CT)*%
X148844000Y-88170000D03*
%TO.P,C1,2*%
%TO.N,GND*%
X148844000Y-87090000D03*
%TD*%
D22*
%TO.N,GND*%
X151384000Y-93472000D03*
X154686000Y-84582000D03*
X146304000Y-96012000D03*
X146558000Y-86360000D03*
X160274000Y-85598000D03*
X156972000Y-91694000D03*
X156210000Y-90424000D03*
X148844000Y-93218000D03*
X152908000Y-93218000D03*
X148590000Y-85852000D03*
D23*
X159766000Y-92456000D03*
D22*
X154178000Y-95758000D03*
%TO.N,/GAIN*%
X157226000Y-91186000D03*
X152146000Y-94234000D03*
%TO.N,/OUTPUT*%
X146812000Y-93980000D03*
X150114000Y-93726000D03*
%TD*%
D24*
%TO.N,Net-(U1-CT)*%
X148844000Y-88170000D02*
X149801400Y-88170000D01*
X149801400Y-88170000D02*
X151395000Y-89763600D01*
%TO.N,GND*%
X159290000Y-91980000D02*
X159766000Y-92456000D01*
D25*
X149025000Y-92683052D02*
X149025000Y-93037000D01*
D24*
X153479000Y-85090000D02*
X154178000Y-85090000D01*
D25*
X144210000Y-86230000D02*
X145920000Y-86230000D01*
D24*
X148844000Y-87090000D02*
X148844000Y-86106000D01*
X158496000Y-91980000D02*
X159290000Y-91980000D01*
D25*
X149025000Y-93037000D02*
X148844000Y-93218000D01*
X151395000Y-90977500D02*
X150730552Y-90977500D01*
D24*
X154178000Y-85090000D02*
X154686000Y-84582000D01*
D25*
X154345000Y-91777500D02*
X156888500Y-91777500D01*
D24*
X163100000Y-88138000D02*
X162814000Y-88138000D01*
D25*
X151395000Y-93461000D02*
X151384000Y-93472000D01*
X143446500Y-86993500D02*
X144210000Y-86230000D01*
X150730552Y-90977500D02*
X149025000Y-92683052D01*
D24*
X163322000Y-87630000D02*
X162306000Y-87630000D01*
X148844000Y-86106000D02*
X148590000Y-85852000D01*
X147542000Y-96012000D02*
X146304000Y-96012000D01*
D25*
X152870000Y-90977500D02*
X152870000Y-93180000D01*
X155656500Y-90977500D02*
X154345000Y-90977500D01*
X143446500Y-90546500D02*
X143446500Y-86993500D01*
D24*
X162306000Y-87630000D02*
X160274000Y-85598000D01*
D25*
X151395000Y-92177500D02*
X151395000Y-93461000D01*
X145920000Y-86230000D02*
X146050000Y-86360000D01*
X146558000Y-86360000D02*
X146050000Y-86360000D01*
X144210000Y-91310000D02*
X143446500Y-90546500D01*
D24*
X152940000Y-95758000D02*
X154178000Y-95758000D01*
D25*
X156888500Y-91777500D02*
X156972000Y-91694000D01*
X152870000Y-93180000D02*
X152908000Y-93218000D01*
X156210000Y-90424000D02*
X155656500Y-90977500D01*
%TO.N,Net-(U1-CG)*%
X148622000Y-95028000D02*
X148380500Y-94786500D01*
X148380500Y-92865104D02*
X150668104Y-90577500D01*
X148380500Y-94786500D02*
X148380500Y-92865104D01*
X150668104Y-90577500D02*
X151395000Y-90577500D01*
X148622000Y-96012000D02*
X148622000Y-95028000D01*
%TO.N,Net-(U1-BIAS)*%
X155009448Y-90577500D02*
X154345000Y-90577500D01*
D24*
X157556500Y-89960500D02*
X157435500Y-89960500D01*
D25*
X157435500Y-89960500D02*
X155626448Y-89960500D01*
D24*
X158496000Y-90900000D02*
X157556500Y-89960500D01*
D25*
X155626448Y-89960500D02*
X155009448Y-90577500D01*
D24*
%TO.N,Net-(U1-MICIN)*%
X157988000Y-93186000D02*
X155339600Y-93186000D01*
X155339600Y-93186000D02*
X154345000Y-92191400D01*
%TO.N,Net-(C5-Pad2)*%
X159226000Y-94266000D02*
X163322000Y-90170000D01*
X158750000Y-88709000D02*
X161861000Y-88709000D01*
X157988000Y-94266000D02*
X159226000Y-94266000D01*
X161861000Y-88709000D02*
X163322000Y-90170000D01*
D25*
%TO.N,/GAIN*%
X144210000Y-88770000D02*
X145418000Y-88770000D01*
X146887500Y-90177500D02*
X151395000Y-90177500D01*
X150793000Y-91377500D02*
X149352000Y-92818500D01*
X151483999Y-95504000D02*
X151606000Y-95626001D01*
D24*
X151860000Y-94520000D02*
X151860000Y-95758000D01*
D25*
X151395000Y-91377500D02*
X150793000Y-91377500D01*
X156103488Y-91186000D02*
X157226000Y-91186000D01*
X149352000Y-94012000D02*
X150844000Y-95504000D01*
X154345000Y-91377500D02*
X155911988Y-91377500D01*
X149352000Y-92818500D02*
X149352000Y-94012000D01*
X150844000Y-95504000D02*
X151483999Y-95504000D01*
D24*
X152146000Y-94234000D02*
X151860000Y-94520000D01*
D25*
X145418000Y-88770000D02*
X145449000Y-88739000D01*
X144210000Y-87500000D02*
X145449000Y-88739000D01*
X145449000Y-88739000D02*
X146887500Y-90177500D01*
X155911988Y-91377500D02*
X156103488Y-91186000D01*
%TO.N,/OUTPUT*%
X146812000Y-91440000D02*
X146812000Y-93980000D01*
X150114000Y-92518948D02*
X150855448Y-91777500D01*
X150114000Y-93726000D02*
X150114000Y-92518948D01*
X145412000Y-90040000D02*
X146812000Y-91440000D01*
X150855448Y-91777500D02*
X151395000Y-91777500D01*
X144210000Y-90040000D02*
X145412000Y-90040000D01*
D24*
%TO.N,Net-(U1-MICBIAS)*%
X158039000Y-87059000D02*
X157543000Y-86563000D01*
D25*
X154947000Y-90177500D02*
X154958500Y-90166000D01*
X154345000Y-90177500D02*
X154947000Y-90177500D01*
D24*
X157543000Y-86563000D02*
X157226000Y-86880000D01*
D25*
X154958500Y-88627500D02*
X156706000Y-86880000D01*
X154958500Y-90166000D02*
X154958500Y-88627500D01*
D24*
X157543000Y-85090000D02*
X157543000Y-86563000D01*
X158750000Y-87059000D02*
X158039000Y-87059000D01*
D25*
X156706000Y-86880000D02*
X157226000Y-86880000D01*
%TO.N,Net-(U1-TH)*%
X155448000Y-85090000D02*
X155893000Y-85090000D01*
X153170250Y-87367750D02*
X155448000Y-85090000D01*
X154345000Y-88542500D02*
X153170250Y-87367750D01*
X151829000Y-86026500D02*
X151829000Y-85090000D01*
X153170250Y-87367750D02*
X151829000Y-86026500D01*
X154345000Y-89777500D02*
X154345000Y-88542500D01*
%TD*%
M02*
